<svg width="160" height="160" viewBox="0 0 160 160" fill="none" xmlns="http://www.w3.org/2000/svg">
<path fill-rule="evenodd" clip-rule="evenodd" d="M76.5653 12.5465C83.6839 12.2729 98.0907 13.2144 109.616 23.5631C119.07 32.0522 122.328 47.7904 120.125 59.9937C118.105 71.1801 113.345 80.3327 115.21 88.8072C117.074 97.2818 121.818 101.46 125.853 103.214C129.752 104.909 133.52 104.4 132.803 107.621C132.085 110.841 127.21 112.028 123.65 112.028C121.698 112.028 115.795 111.519 113.176 109.824C110.081 107.821 109.391 106.026 108.213 104.583C108.013 104.338 107.66 104.508 107.707 104.821C108.244 108.37 109.724 114.394 112.125 118.129C114.068 121.152 114.871 123.356 119.322 127.085C123.774 130.813 125.853 134.203 121.525 136.604C117.68 138.736 109.322 134.373 104.407 128.977C99.9827 124.12 96.9027 118.129 95.6845 114.231C95.0333 112.147 94.3809 108.562 93.7294 105.629C93.6438 105.244 93.1158 105.306 93.1044 105.701C92.8881 113.164 91.715 120.291 89.9999 127.932C88.765 133.433 85.7625 140.135 83.0507 144.203C79.744 149.163 74.8352 150.711 71.1864 149.355C68.2682 148.27 70.339 144.582 71.1864 141.389C72.0339 138.197 73.7293 131.519 74.871 124.203C75.9044 117.581 76.1779 111.026 75.7177 104.815C75.6892 104.436 75.1071 104.378 74.9892 104.739C74.0381 107.652 72.2453 112.481 70.9374 115.418C68.2095 121.543 66.1908 124.231 60.5975 130.671C55.5674 136.464 41.1003 144.655 39.2421 136.604C38.7336 134.401 41.3976 133.436 43.8544 131.519C47.5474 128.638 50.6335 123.525 53.5595 117.282C56.1868 111.676 57.5222 106.253 57.7265 102.791C57.7458 102.457 57.3267 102.331 57.1386 102.607C55.9224 104.391 54.1315 106.805 52.1591 108.807C48.8642 112.152 45.2097 115.595 40.9716 117.282C34.1575 119.994 27.2087 118.129 27.7167 113.214C28.1413 109.109 32.7248 109.959 38.4306 103.734C44.0237 97.6323 45.8875 92.8857 46.2265 87.6314C46.4973 83.4279 42.3852 73.4513 40.2948 68.9879C36.9615 61.8692 34.4982 41.666 44.5321 28.649C57.0741 12.3783 72.1581 12.7158 76.5653 12.5465ZM56.9999 40.9996C52.3334 40.9996 50 44.5815 49.9999 48.9996C49.9999 53.4179 52.5925 56.9996 56.9999 56.9996C61.4073 56.9996 63.9999 53.4179 63.9999 48.9996C63.9998 44.5815 61.6664 40.9996 56.9999 40.9996ZM94.9999 40.9996C90.3334 40.9996 88 44.5815 87.9999 48.9996C87.9999 53.4179 90.5925 56.9996 94.9999 56.9996C99.4073 56.9996 102 53.4179 102 48.9996C102 44.5815 99.6664 40.9996 94.9999 40.9996Z" fill="black" style="fill:black;fill-opacity:1;"/>
</svg>
